<svg width="102" height="92" viewBox="0 0 102 92" fill="none" xmlns="http://www.w3.org/2000/svg">
<path d="M0.2 91.04V0.639996H53.24V91.04H0.2ZM48.52 68.48L49.56 56.24L40.84 55.44L39.72 63.2C37.32 64.64 34.0133 65.36 29.8 65.36C25.32 65.36 21.64 64 18.76 61.28C15.88 58.56 14.44 54.1867 14.44 48.16C14.44 42.4533 15.7467 38.1067 18.36 35.12C21.0267 32.1333 24.6 30.64 29.08 30.64C30.84 30.64 32.7067 30.88 34.68 31.36C36.6533 31.84 38.3333 32.5333 39.72 33.44L40.84 40.32L49.56 39.52L48.28 27.44C46.6267 25.8933 44.2 24.48 41 23.2C37.8 21.8667 33.9867 21.2 29.56 21.2C23 21.2 17.7733 22.6667 13.88 25.6C9.98667 28.5333 7.18667 32.1333 5.48 36.4C3.77333 40.6667 2.92 44.8267 2.92 48.88C2.92 56.6133 5.42667 62.88 10.44 67.68C15.4533 72.4267 21.6667 74.8 29.08 74.8C32.8133 74.8 36.5467 74.2133 40.28 73.04C44.0667 71.8667 46.8133 70.3467 48.52 68.48ZM51.6062 91.04V0.639996H101.126V91.04H51.6062ZM99.1263 38.96C99.1263 33.7333 97.4463 29.6 94.0863 26.56C90.7263 23.52 85.8196 22 79.3663 22H55.5263V31.12H61.1263V64.88H55.5263V74H79.8463V64.88H71.8463V56.56H79.8463C84.9663 56.56 89.4463 55.12 93.2863 52.24C97.1796 49.3067 99.1263 44.88 99.1263 38.96ZM87.6063 39.12C87.6063 41.6267 86.8863 43.6533 85.4463 45.2C84.0596 46.7467 81.5263 47.52 77.8463 47.52H71.8463V31.12H78.0063C81.5796 31.12 84.0596 31.8133 85.4463 33.2C86.8863 34.5867 87.6063 36.56 87.6063 39.12Z" fill="black"/>
</svg>
